<svg width="51" height="32" viewBox="0 0 51 32" fill="none" xmlns="http://www.w3.org/2000/svg">
<g clip-path="url(#clip0_392_3985)">
<path d="M50.4286 0H0.142853V32H50.4286V0Z" fill="white"/>
<path d="M50.4286 0H0.142853V32H50.4286V0Z" fill="white"/>
<path d="M50.2 0.228577H0.371429V31.7714H50.2V0.228577Z" stroke="#DFDFDF" stroke-width="0.5"/>
<path d="M22.8909 15.2621H20.8104V12.6558H22.8909V13.1987H21.433V13.6683H22.8564V14.2025H21.433V14.7231H22.8909V15.2621ZM18.2546 15.2621L17.3498 13.2196V15.2626H16.0823L15.8429 14.6813H14.5463L14.3044 15.2626H13.6279L14.7434 12.6562H15.6681L16.7282 15.1242V12.6562H17.7451L18.5605 14.4244L19.3089 12.6562H20.3471V15.2626H19.7085L19.7061 13.2215L18.8028 15.2626L18.2546 15.2621ZM15.6176 14.1379L15.1917 13.0991L14.7682 14.1379H15.6176ZM25.694 18.0006C25.694 18.7247 25.1539 18.8743 24.6096 18.8743H23.8325V19.7484H22.6219L21.8546 18.8855L21.0571 19.7484H18.5896V17.142H21.0945L21.8618 17.9958L22.6544 17.142H24.6445C25.1389 17.1415 25.694 17.279 25.694 18.0006ZM21.4539 18.4401L20.7726 17.6811H19.2113V18.1551H20.5783V18.6873H19.2113V19.206H20.742L21.4539 18.4401ZM23.2119 17.4213L22.2552 18.4489L23.2119 19.5114V17.4213ZM25.0253 18.0006C25.0253 17.7724 24.8699 17.6806 24.6445 17.6806H23.8325V18.3445H24.6368C24.8767 18.3449 25.0253 18.226 25.0253 18.0006ZM23.9467 15.2621H23.3231V12.6558H24.7557C25.0738 12.6558 25.3084 12.664 25.5104 12.7806C25.7066 12.8971 25.8251 13.0671 25.8251 13.358C25.8251 13.7732 25.5483 13.9883 25.3861 14.0524C25.5225 14.1044 25.6391 14.1962 25.6945 14.2719C25.7828 14.4016 25.7979 14.5172 25.7979 14.7498V15.2621H25.1695L25.1666 14.9334C25.1666 14.7765 25.1816 14.5512 25.0685 14.4259C24.9777 14.3346 24.8388 14.3147 24.6144 14.3147H23.9467V15.2621ZM23.9457 13.7776H24.7028C24.8237 13.7776 24.9247 13.7761 25.0112 13.7241C25.0913 13.6819 25.1394 13.5901 25.1394 13.4765C25.1394 13.3648 25.0894 13.2842 25.0087 13.2463C24.9349 13.2045 24.8213 13.1992 24.7135 13.1992H23.9462L23.9457 13.7776ZM26.8216 12.6562H26.1859V15.2626H26.8216V12.6562ZM27.4607 14.9742C27.2412 14.7527 27.1266 14.4526 27.1266 13.9791C27.1266 13.5925 27.1951 13.239 27.4622 12.9598C27.6627 12.7519 27.9789 12.6562 28.4082 12.6562H29.0109V13.2147H28.4208C28.1921 13.2147 28.0644 13.2487 27.941 13.3691C27.8346 13.4789 27.7623 13.6858 27.7623 13.9597C27.7623 14.2384 27.8167 14.44 27.9337 14.5711C28.0294 14.6745 28.2052 14.7056 28.3679 14.7056H28.6471L29.5271 12.6562H30.46L31.5148 15.1213V12.6562H32.4632L33.5588 14.4715V12.6562H34.196V15.2626H33.314L32.132 13.3065V15.2626H30.864L30.6212 14.6813H29.3275L29.0934 15.2626H28.364C28.0605 15.2621 27.6773 15.1951 27.4607 14.9742ZM29.5504 14.1379H30.41L29.9782 13.0991L29.5504 14.1379ZM28.2426 13.677C28.2368 13.6853 28.193 13.779 28.193 13.9597C28.193 14.1384 28.2217 14.2243 28.2426 14.2632C28.2644 14.269 28.3047 14.2758 28.365 14.2758L28.635 13.645H28.4223C28.2756 13.6445 28.2605 13.66 28.2426 13.677ZM38.5429 8.02038V24.3838C38.5429 24.7738 38.2272 25.0899 37.8368 25.0899H11.8204C11.43 25.0899 11.1143 24.7733 11.1143 24.3833V8.02038C11.1143 7.63042 11.43 7.31427 11.8204 7.31427H37.8368C38.2272 7.31427 38.5429 7.63042 38.5429 8.02038ZM18.2546 15.6929H18.8019C18.9728 15.6929 19.1263 15.5924 19.1952 15.4365L19.2778 15.2519V15.2626C19.2778 15.5001 19.4701 15.6924 19.7081 15.6924H20.3467C20.4341 15.6924 20.5103 15.6594 20.5788 15.6152C20.6468 15.6594 20.723 15.6924 20.8109 15.6924H22.8914C22.972 15.6924 23.0434 15.6643 23.107 15.6259C23.1721 15.6643 23.2425 15.6924 23.3231 15.6924H23.9467C24.1841 15.6924 24.3769 15.4996 24.3769 15.2621V14.7445H24.6144C24.6683 14.7445 24.7067 14.7459 24.7353 14.7479C24.7382 14.7921 24.7373 14.8445 24.7373 14.8795L24.7363 14.9368L24.7387 15.2655C24.7407 15.5016 24.933 15.6924 25.1695 15.6924H25.7979C25.8688 15.6924 25.9324 15.671 25.9912 15.6405C26.0509 15.671 26.1155 15.6924 26.1859 15.6924H26.8221C27.0304 15.6924 27.1956 15.5419 27.2359 15.3457C27.5899 15.6424 28.0862 15.6924 28.3635 15.6924H29.0929C29.2673 15.6924 29.4256 15.5856 29.4902 15.4229L29.6174 15.1106H30.3352L30.4668 15.4273C30.5348 15.5875 30.6907 15.6919 30.864 15.6919H32.132C32.369 15.6919 32.5623 15.4991 32.5623 15.2617V14.8503L32.9445 15.4841C33.0227 15.6133 33.162 15.6919 33.314 15.6919H34.196C34.4329 15.6919 34.6262 15.4991 34.6262 15.2617V12.6553C34.6262 12.4178 34.4339 12.225 34.196 12.225H33.5588C33.3208 12.225 33.1276 12.4178 33.1276 12.6553V12.9243L32.8313 12.4333C32.7536 12.3042 32.6143 12.2255 32.4632 12.2255H31.5148C31.2768 12.2255 31.084 12.4183 31.084 12.6558V13.0214L30.8553 12.4863C30.7868 12.3284 30.6319 12.2255 30.46 12.2255H29.5271C29.4319 12.2255 29.3421 12.2566 29.2697 12.311C29.1983 12.257 29.1085 12.2255 29.0128 12.2255H28.4101C27.8992 12.2255 27.5195 12.3498 27.2407 12.5912C27.2092 12.3857 27.0382 12.2255 26.8231 12.2255H26.1874C26.0179 12.2255 25.8741 12.326 25.8042 12.4678C25.7775 12.4484 25.7561 12.4256 25.7265 12.4076C25.4337 12.2386 25.1272 12.2255 24.7567 12.2255H23.3241C23.2435 12.2255 23.1726 12.2536 23.108 12.292C23.0444 12.2536 22.973 12.2255 22.8924 12.2255H20.8119C20.724 12.2255 20.6478 12.258 20.5798 12.3027C20.5113 12.258 20.4351 12.2255 20.3476 12.2255H19.3094C19.1374 12.2255 18.9811 12.3289 18.914 12.4882L18.544 13.3604L18.1365 12.4756C18.0656 12.3236 17.9127 12.2255 17.7456 12.2255H16.7282C16.4903 12.2255 16.2979 12.4183 16.2979 12.6558V13.0302L16.0643 12.4853C15.9959 12.3275 15.841 12.225 15.6686 12.225H14.7439C14.5715 12.225 14.4156 12.3279 14.3481 12.4858L13.2331 15.0922C13.1758 15.2248 13.1899 15.3772 13.269 15.4986C13.3487 15.6191 13.4837 15.6919 13.6284 15.6919H14.3054C14.4783 15.6919 14.6356 15.587 14.7017 15.4268L14.8333 15.1101H15.5549L15.6846 15.4248C15.7511 15.5861 15.908 15.6914 16.0828 15.6914H17.3498C17.5873 15.6914 17.7801 15.4986 17.7801 15.2612V15.251L17.8617 15.436C17.9302 15.5924 18.0846 15.6929 18.2546 15.6929ZM36.4595 18.9258C36.4595 18.5615 36.3624 18.2906 36.1487 18.071C36.1443 18.0667 36.1395 18.0623 36.1361 18.0584C36.255 17.9817 36.3327 17.8481 36.3327 17.6961V17.1415C36.3327 16.9036 36.1404 16.7108 35.903 16.7108H34.6539C34.2649 16.7108 33.9731 16.8249 33.7594 16.9983C33.6996 16.8317 33.5452 16.7108 33.3573 16.7108H32.1092C31.7663 16.7108 31.4944 16.7963 31.2894 16.9352C31.2156 16.8035 31.0796 16.7108 30.9184 16.7108H28.8399C28.6719 16.7108 28.5315 16.8089 28.4606 16.9483C28.4305 16.9279 28.4096 16.9031 28.3771 16.8842C28.0765 16.7234 27.756 16.7108 27.4248 16.7108H25.9863C25.8178 16.7108 25.676 16.8094 25.6056 16.9502C25.3875 16.8074 25.0806 16.7108 24.6445 16.7108H22.6544C22.5344 16.7108 22.4203 16.7603 22.3387 16.8482L21.8672 17.3572L21.4146 16.8536C21.3335 16.7623 21.2174 16.7108 21.0945 16.7108H18.5896C18.3522 16.7108 18.1594 16.9031 18.1594 17.1415V19.7479C18.1594 19.9854 18.3517 20.1787 18.5896 20.1787H21.0571C21.1771 20.1787 21.2912 20.1282 21.3728 20.0403L21.8482 19.5255L22.2994 20.0335C22.381 20.1253 22.4985 20.1777 22.6214 20.1777H23.8321C24.07 20.1777 24.2628 19.9854 24.2628 19.7475V19.3031H24.6091C25.0296 19.3031 25.3346 19.2167 25.5556 19.0851V19.7475C25.5556 19.9849 25.7479 20.1777 25.9863 20.1777H26.6123C26.8498 20.1777 27.0426 19.9854 27.0426 19.7475V19.2254H27.2776C27.3349 19.2254 27.3752 19.2273 27.4039 19.2293C27.4068 19.2754 27.4068 19.3318 27.4058 19.3687V19.7475C27.4058 19.9849 27.5981 20.1777 27.8366 20.1777H28.4616C28.5306 20.1777 28.5932 20.1578 28.651 20.1292C28.7083 20.1588 28.7719 20.1777 28.8414 20.1777H30.9199C30.9879 20.1777 31.0495 20.1588 31.1064 20.1311C31.1637 20.1588 31.2249 20.1777 31.2933 20.1777H32.5064C32.8935 20.1777 33.2062 20.0835 33.4427 19.916C33.5088 20.0694 33.6608 20.1777 33.8385 20.1777H35.0516C35.9336 20.1787 36.4595 19.7101 36.4595 18.9258ZM32.5866 18.1643L32.252 18.1546C32.1456 18.1546 32.0757 18.1478 32.0092 18.125C31.931 18.0953 31.8732 18.0293 31.8732 17.9307C31.8732 17.8481 31.8984 17.7855 31.9674 17.7428C32.0295 17.7005 32.1029 17.6957 32.217 17.6957H33.3592V17.1411H32.1111C31.4575 17.1411 31.2205 17.5383 31.2205 17.9171C31.2205 18.7412 31.9504 18.7043 32.5322 18.7233C32.6414 18.7233 32.7065 18.7412 32.7541 18.781C32.7978 18.818 32.8299 18.8772 32.8299 18.9534C32.8299 19.0243 32.7998 19.0836 32.757 19.1234C32.7046 19.173 32.6206 19.188 32.503 19.188H31.2948V19.747H32.5079C33.1358 19.747 33.4869 19.4852 33.4869 18.9243C33.4869 18.6567 33.4214 18.4974 33.3 18.3721C33.1567 18.2303 32.9246 18.1725 32.5866 18.1643ZM28.0537 18.5368C28.1916 18.5873 28.3057 18.68 28.3582 18.7558C28.447 18.883 28.4597 19.0015 28.4616 19.2312V19.7479H27.8366V19.4221C27.8366 19.2652 27.8516 19.0331 27.7361 18.9117C27.6448 18.8184 27.5064 18.7961 27.2791 18.7961H26.6138V19.7479H25.9883V17.1415H27.4262C27.7414 17.1415 27.9706 17.1547 28.1765 17.2639C28.3722 17.3824 28.4961 17.5456 28.4961 17.8428C28.4951 18.26 28.2168 18.4722 28.0537 18.5368ZM27.806 17.9628C27.806 17.8515 27.7579 17.7704 27.6773 17.7282C27.6015 17.6835 27.4898 17.6811 27.3801 17.6811H26.6128V18.2668H27.3699C27.4913 18.2668 27.5947 18.2624 27.6783 18.2129C27.7579 18.1643 27.806 18.074 27.806 17.9628ZM28.8409 19.7479H30.9194V19.2074L29.4605 19.2045V18.6863H30.8835V18.1546H29.4605V17.6801H30.9194V17.1415H28.8409V19.7479ZM35.1318 18.1643L34.7967 18.1546C34.6913 18.1546 34.6209 18.1478 34.5539 18.125C34.4767 18.0953 34.4184 18.0293 34.4184 17.9307C34.4184 17.8481 34.4436 17.7855 34.5121 17.7428C34.5748 17.7005 34.6486 17.6957 34.7622 17.6957H35.9049V17.1411H34.6559C34.0032 17.1411 33.7652 17.5383 33.7652 17.9171C33.7652 18.7412 34.4956 18.7043 35.0779 18.7233C35.1867 18.7233 35.2512 18.7412 35.2998 18.781C35.3425 18.818 35.3751 18.8772 35.3751 18.9534C35.3751 19.0243 35.3445 19.0836 35.3027 19.1234C35.2498 19.173 35.1658 19.188 35.0482 19.188H33.8405V19.747H35.0536C35.6815 19.747 36.0317 19.4852 36.0317 18.9243C36.0317 18.6567 35.9671 18.4974 35.8447 18.3721C35.7024 18.2303 35.4698 18.1725 35.1318 18.1643Z" fill="#006FCF"/>
</g>
<defs>
<clipPath id="clip0_392_3985">
<rect width="50.2857" height="32" fill="white" transform="translate(0.142853)"/>
</clipPath>
</defs>
</svg>
