<svg width="151" height="134" viewBox="0 0 151 134" fill="none" xmlns="http://www.w3.org/2000/svg">
<path d="M151 56.5313V60.7188C151 64.1878 148.183 67 144.708 67H142.611L135.766 114.839C134.88 121.028 129.571 125.625 123.309 125.625H27.6912C21.4292 125.625 16.12 121.028 15.2342 114.839L8.38889 67H6.29167C2.81683 67 0 64.1878 0 60.7188V56.5313C0 53.0622 2.81683 50.25 6.29167 50.25H23.9453L51.938 11.8242C54.6631 8.08372 59.9093 7.25642 63.6565 9.97699C67.4034 12.6976 68.2318 17.9353 65.5067 21.6761L44.691 50.25H106.309L85.4933 21.6758C82.7682 17.9353 83.5968 12.6973 87.3438 9.97673C91.0902 7.25616 96.3372 8.08319 99.0623 11.8239L127.055 50.25H144.708C148.183 50.25 151 53.0622 151 56.5313ZM81.7917 102.594V73.2813C81.7917 69.8122 78.9748 67 75.5 67C72.0252 67 69.2083 69.8122 69.2083 73.2813V102.594C69.2083 106.063 72.0252 108.875 75.5 108.875C78.9748 108.875 81.7917 106.063 81.7917 102.594ZM111.153 102.594V73.2813C111.153 69.8122 108.336 67 104.861 67C101.386 67 98.5695 69.8122 98.5695 73.2813V102.594C98.5695 106.063 101.386 108.875 104.861 108.875C108.336 108.875 111.153 106.063 111.153 102.594ZM52.4306 102.594V73.2813C52.4306 69.8122 49.6137 67 46.1389 67C42.6641 67 39.8472 69.8122 39.8472 73.2813V102.594C39.8472 106.063 42.6641 108.875 46.1389 108.875C49.6137 108.875 52.4306 106.063 52.4306 102.594Z" fill="#0B1A44"/>
</svg>
