<svg width="97" height="129" viewBox="0 0 97 129" fill="none" xmlns="http://www.w3.org/2000/svg">
<g clip-path="url(#clip0_311_121)">
<path d="M43.5156 126.397C6.81273 73.3262 0 67.8794 0 48.375C0 21.6581 21.7141 0 48.5 0C75.2859 0 97 21.6581 97 48.375C97 67.8794 90.1873 73.3262 53.4844 126.397C51.0758 129.868 45.9239 129.867 43.5156 126.397ZM48.5 68.5312C59.6608 68.5312 68.7083 59.507 68.7083 48.375C68.7083 37.243 59.6608 28.2188 48.5 28.2188C37.3392 28.2188 28.2917 37.243 28.2917 48.375C28.2917 59.507 37.3392 68.5312 48.5 68.5312Z" fill="#0B1A44"/>
</g>
<defs>
<clipPath id="clip0_311_121">
<rect width="97" height="129" fill="white"/>
</clipPath>
</defs>
</svg>
