<svg id="Layer_1" data-name="Layer 1" xmlns="http://www.w3.org/2000/svg" viewBox="0 0 322.67 169.33"><defs><style>.cls-1,.cls-4{isolation:isolate;}.cls-2,.cls-4{fill:#3c3c3b;}.cls-3{fill:#ca3625;}.cls-4{font-size:26.74px;font-family:Helvetica-Bold, Helvetica;font-weight:700;}</style></defs><g className="cls-1"><path className="cls-2" d="M41,45.77q3.39,4.31,3.39,11.1A19.38,19.38,0,0,1,41,68.55a10.86,10.86,0,0,1-9.34,4.63,11,11,0,0,1-6.05-1.49,12.23,12.23,0,0,1-3-3.11v3.8h-7.8V31.53h7.91V46.07a11.74,11.74,0,0,1,3.33-3.22,9.93,9.93,0,0,1,5.47-1.38A11.3,11.3,0,0,1,41,45.77ZM34.37,64.19a11.17,11.17,0,0,0,1.7-6.49,14.53,14.53,0,0,0-.84-5.33,5.84,5.84,0,0,0-5.87-4,5.93,5.93,0,0,0-6,3.91,14.56,14.56,0,0,0-.84,5.38,11.18,11.18,0,0,0,1.74,6.44,5.94,5.94,0,0,0,5.28,2.55A5.48,5.48,0,0,0,34.37,64.19Z"/><path className="cls-2" d="M69.58,42.75a12.2,12.2,0,0,1,5.22,4.47,14.89,14.89,0,0,1,2.41,6.25,37.72,37.72,0,0,1,.26,6h-22c.13,3,1.18,5.16,3.17,6.38A8,8,0,0,0,63,67a6.16,6.16,0,0,0,6-3.47h8.07A9.86,9.86,0,0,1,74.13,69q-4.06,4.42-11.38,4.42A16.41,16.41,0,0,1,52.1,69.68Q47.48,66,47.48,57.58q0-7.86,4.17-12.06a14.58,14.58,0,0,1,10.81-4.19A17.18,17.18,0,0,1,69.58,42.75ZM57.74,49.58a8.2,8.2,0,0,0-2.1,4.68H69.26a6.59,6.59,0,0,0-2.1-4.78,6.92,6.92,0,0,0-4.69-1.63A6.31,6.31,0,0,0,57.74,49.58Z"/><path className="cls-2" d="M97.51,42.62A9.57,9.57,0,0,1,101,46V31.53h8V72.38h-7.69V68.19a11.17,11.17,0,0,1-3.85,3.91,10.8,10.8,0,0,1-5.39,1.22A11.27,11.27,0,0,1,83.15,69a16.5,16.5,0,0,1-3.62-11q0-7.74,3.57-12.18a11.58,11.58,0,0,1,9.53-4.44A9.68,9.68,0,0,1,97.51,42.62Zm1.94,21.55a11,11,0,0,0,1.75-6.47q0-5.55-2.8-7.94a6,6,0,0,0-4-1.44,5.55,5.55,0,0,0-5.09,2.62,12.18,12.18,0,0,0-1.62,6.51,12,12,0,0,0,1.65,6.7,5.57,5.57,0,0,0,5,2.51A5.83,5.83,0,0,0,99.45,64.17Z"/></g><g className="cls-1"><path className="cls-2" d="M139.94,31.1l1.66.13v6.44c-.44-.06-1.18-.1-2.23-.13a2.29,2.29,0,0,0-2.76,2.32v2.55h5.19V48h-5.19V72.38h-7.85V48h-4.44V42.41h4.33V40.47q0-4.86,1.63-6.69,1.72-2.72,8.3-2.72C139.08,31.06,139.53,31.07,139.94,31.1Z"/><path className="cls-2" d="M158.33,54a12.32,12.32,0,0,0,3.16-.69,2.38,2.38,0,0,0,1.7-2.25,2.67,2.67,0,0,0-1.3-2.57,8.35,8.35,0,0,0-3.84-.7c-1.9,0-3.24.46-4,1.38a5.8,5.8,0,0,0-1.12,2.78h-7.63a11.49,11.49,0,0,1,2.23-6.52q3.15-4,10.81-4a19.29,19.29,0,0,1,8.86,2c2.59,1.32,3.88,3.79,3.88,7.44V64.69c0,1,0,2.13,0,3.5a4.43,4.43,0,0,0,.47,2.11,2.83,2.83,0,0,0,1.17.91v1.17h-8.6a8.6,8.6,0,0,1-.5-1.72,17,17,0,0,1-.22-1.83,16.47,16.47,0,0,1-3.8,3,11.48,11.48,0,0,1-5.81,1.47A10,10,0,0,1,147,71a8.32,8.32,0,0,1-2.69-6.65q0-5.58,4.33-8.07a19.24,19.24,0,0,1,7-1.95Zm4.84,3.69a8.86,8.86,0,0,1-1.54.77,13.59,13.59,0,0,1-2.12.54l-1.8.33a12.18,12.18,0,0,0-3.64,1.08,3.61,3.61,0,0,0-1.86,3.36,3.49,3.49,0,0,0,1.14,2.93,4.33,4.33,0,0,0,2.77.9,8.28,8.28,0,0,0,4.78-1.5q2.17-1.5,2.27-5.47Z"/><path className="cls-2" d="M196.05,53a7.05,7.05,0,0,0-1.14-3,4.79,4.79,0,0,0-4.15-1.83,5.46,5.46,0,0,0-5.48,4,16.41,16.41,0,0,0-.78,5.59,15.14,15.14,0,0,0,.78,5.34,5.29,5.29,0,0,0,5.34,3.77c1.86,0,3.18-.5,3.95-1.49A7.4,7.4,0,0,0,196,61.39h8.08a13.32,13.32,0,0,1-2.61,6.83q-3.72,5.19-11,5.19t-10.75-4.33q-3.45-4.33-3.44-11.23,0-7.79,3.8-12.11t10.5-4.33A15.84,15.84,0,0,1,199.86,44q3.63,2.57,4.29,9Z"/><path className="cls-2" d="M206.46,48V42.41h4.21V34h7.83v8.44h4.91V48H218.5V64a3.6,3.6,0,0,0,.47,2.31c.31.31,1.28.46,2.89.46h.76l.79,0v5.91l-3.75.14c-3.73.12-6.29-.52-7.66-2a5.8,5.8,0,0,1-1.33-4.19V48Z"/><path className="cls-2" d="M253.71,68.68q-3.83,4.72-11.63,4.73t-11.62-4.73a17.53,17.53,0,0,1-3.83-11.38A17.65,17.65,0,0,1,230.46,46q3.82-4.8,11.62-4.8T253.71,46a17.65,17.65,0,0,1,3.83,11.34A17.53,17.53,0,0,1,253.71,68.68Zm-6.33-4.37c1.24-1.65,1.86-4,1.86-7s-.62-5.36-1.86-7a6.27,6.27,0,0,0-5.32-2.45,6.34,6.34,0,0,0-5.35,2.45c-1.24,1.64-1.87,4-1.87,7s.63,5.36,1.87,7a6.32,6.32,0,0,0,5.35,2.46A6.25,6.25,0,0,0,247.38,64.31Z"/><path className="cls-2" d="M280,41.43l.68,0v8.1c-.5-.06-.94-.09-1.33-.11l-.94,0q-4.77,0-6.41,3.11a12.07,12.07,0,0,0-.92,5.38V72.38h-8V42.13h7.55v5.28a16.6,16.6,0,0,1,3.19-4.14,8.68,8.68,0,0,1,5.77-1.86Z"/><path className="cls-2" d="M286.51,78.18l1,0a12.4,12.4,0,0,0,2.22-.08,3.9,3.9,0,0,0,1.78-.64,4.27,4.27,0,0,0,1.29-2,4.79,4.79,0,0,0,.51-1.83L282.2,42.13H291l6.61,22.31,6.24-22.31h8.41L301.88,71.88q-3,8.59-4.76,10.67c-1.16,1.38-3.5,2.07-7,2.07l-1.69,0q-.65,0-1.92-.09Z"/></g><path className="cls-3" d="M22.54,115.69a8,8,0,0,1-6.33-2.59,10.38,10.38,0,0,1-2.29-7.16,20.3,20.3,0,0,1,.15-2.46c.1-.91.25-1.83.43-2.72a17.87,17.87,0,0,1,5-9.38A12,12,0,0,1,28,87.66a7.44,7.44,0,0,1,7.15,3.84l.12.22L37.94,79h7l-7.44,36h-7l.64-3A12.13,12.13,0,0,1,22.54,115.69Zm6.69-22a6.41,6.41,0,0,0-4.78,2.22,13.56,13.56,0,0,0-3.14,7.57c0,.52-.09,1-.09,1.39a5.55,5.55,0,0,0,1.21,3.63,4.4,4.4,0,0,0,3.34,1.34,6.72,6.72,0,0,0,4.83-2.14,11.18,11.18,0,0,0,2.81-5.65,9.75,9.75,0,0,0-.27-6.22,4,4,0,0,0-3.93-2.14Z"/><path className="cls-3" d="M49.39,88.34h7L50.91,115h-7Zm4.43-9.49h.61A3.59,3.59,0,0,1,58,82.45a3.63,3.63,0,0,1-.08.73h0A3.54,3.54,0,0,1,54.43,86h-.61a3.6,3.6,0,0,1-3.6-3.59,3.08,3.08,0,0,1,.07-.68h0A3.6,3.6,0,0,1,53.82,78.85Z"/><path className="cls-3" d="M63.08,88.34h6.68l-1.14,5.4a22.39,22.39,0,0,1,1.39-2q3.34-4.16,7.09-4.16h1.67l-1.25,6a18.63,18.63,0,0,0-2.11-.1,7.23,7.23,0,0,0-5.18,1.92,10.27,10.27,0,0,0-2.81,5.6l-2.87,13.92h-7Z"/><path className="cls-3" d="M88.15,115.69a11.73,11.73,0,0,1-8-2.46,9,9,0,0,1-2.79-7.1,10.14,10.14,0,0,1,.15-2.09c.15-.74.2-1.52.35-2.29a18.52,18.52,0,0,1,5.5-10.38,14.45,14.45,0,0,1,10-3.75A10.6,10.6,0,0,1,101,90.11a9.46,9.46,0,0,1,2.56,7.19,21.17,21.17,0,0,1-.15,2.52,24.42,24.42,0,0,1-.47,2.8l-.18.85H84.55v.35a12.81,12.81,0,0,0-.1,1.39,4.31,4.31,0,0,0,3.69,4.85,4,4,0,0,0,1.24,0,6.69,6.69,0,0,0,3.25-.77,4.64,4.64,0,0,0,2.09-2h7.12a14.39,14.39,0,0,1-5.55,6.19A15.27,15.27,0,0,1,88.15,115.69Zm8.36-16.84v-.91a4.85,4.85,0,0,0-1.09-3.43,4.45,4.45,0,0,0-3.34-1.1,5.84,5.84,0,0,0-4.68,2.17,11,11,0,0,0-1.83,3.34Z"/><path className="cls-3" d="M130.09,105.26a15.47,15.47,0,0,1-5.57,7.6,14.69,14.69,0,0,1-8.86,2.83,10.34,10.34,0,0,1-7.35-2.41,9,9,0,0,1-2.58-6.92,16.44,16.44,0,0,1,.14-2.22,19.56,19.56,0,0,1,.38-2.39,18.48,18.48,0,0,1,5.52-10.38A14.61,14.61,0,0,1,122,87.62a10.2,10.2,0,0,1,7.68,2.69,8,8,0,0,1,2.11,5.89l-.1,1.67h-7.12a5.23,5.23,0,0,0-1-3.34,3.52,3.52,0,0,0-2.8-1,5.65,5.65,0,0,0-4.52,2.14,14.68,14.68,0,0,0-2.7,6.43c-.1.54-.18,1.09-.25,1.67a15.11,15.11,0,0,0-.1,1.51,5.54,5.54,0,0,0,1,3.46,3.38,3.38,0,0,0,2.76,1.22,6.08,6.08,0,0,0,3.71-1.29,7,7,0,0,0,2.41-3.34Z"/><path className="cls-3" d="M145.1,115.19c-1.14.08-2.6.11-4.33.11a7.45,7.45,0,0,1-5.14-1.28,4.68,4.68,0,0,1-.66-4.42l3.34-16.23h-3.64l1.05-5h3.64l1.47-7.19h7l-1.47,7.19h4.23l-1.06,5h-4.22l-3.11,15a1.08,1.08,0,0,0,.36,1.22,3.54,3.54,0,0,0,1.89.36h1.67Z"/><text className="cls-4" transform="translate(149.22 113.76)">.co.uk</text><path className="cls-3" d="M286.45,112a3,3,0,0,1,.2,4.2,2.87,2.87,0,0,1-.72.58c-56.29,31.39-127.25,35.55-191.45,6.69l.86-1.27c64.8,27,133.56,20.05,185.53-11.4A4.56,4.56,0,0,1,286.4,112Z"/><circle className="cls-3" cx="293.27" cy="105.71" r="5.15"/></svg>