<svg width="51" height="32" viewBox="0 0 51 32" fill="none" xmlns="http://www.w3.org/2000/svg">
<g clip-path="url(#clip0_392_3957)">
<path d="M50.8571 0H0.571411V32H50.8571V0Z" fill="white"/>
<path d="M50.8571 0H0.571411V32H50.8571V0Z" fill="white"/>
<path d="M50.6286 0.228577H0.799988V31.7714H50.6286V0.228577Z" stroke="#DFDFDF" stroke-width="0.5"/>
<path d="M37.6749 20.2752L37.44 20.0402L37.6749 20.2752Z" fill="#F5931E"/>
<path d="M29.2087 21.3514H22.8462V9.86792H29.2087V21.3514Z" fill="#6A69AF"/>
<path d="M23.264 15.8126C23.2845 14.6844 23.5456 13.5737 24.0298 12.5545C24.514 11.5353 25.2102 10.6312 26.0717 9.90265C25.1568 9.18948 24.0847 8.70536 22.9447 8.49063C21.8047 8.27591 20.6299 8.3368 19.5182 8.66824C18.4066 8.99968 17.3902 9.59205 16.5539 10.396C15.7176 11.1999 15.0857 12.1921 14.7106 13.2899C14.3356 14.3876 14.2285 15.5591 14.3981 16.7067C14.5677 17.8542 15.0091 18.9446 15.6857 19.887C16.3622 20.8293 17.2542 21.5962 18.2873 22.1239C19.3204 22.6515 20.4646 22.9246 21.6247 22.9202C22.4386 22.9527 23.2508 22.8232 24.0143 22.5391C24.7777 22.255 25.4771 21.8221 26.0717 21.2654C25.1793 20.6696 24.4532 19.8564 23.962 18.9024C23.4708 17.9485 23.2306 16.8851 23.264 15.8126Z" fill="#E31E26"/>
<path d="M37.8633 15.7239C37.8497 17.6431 37.0816 19.4799 35.725 20.8375C34.3684 22.1951 32.5322 22.9646 30.613 22.9797C29.8011 23.0139 28.9904 22.8877 28.2273 22.6083C27.4642 22.3289 26.7637 21.9018 26.1659 21.3513C27.0411 20.7005 27.7511 19.8531 28.2388 18.8775C28.7265 17.902 28.9782 16.8255 28.9737 15.7349C28.9535 14.6128 28.6923 13.5083 28.2078 12.496C27.7234 11.4838 27.027 10.5875 26.1659 9.86789C27.4485 8.8845 28.999 8.31294 30.613 8.22858C32.5455 8.32996 34.3678 9.15971 35.7131 10.5508C37.0583 11.9418 37.8266 13.7909 37.8633 15.7257V15.7239Z" fill="#1694D2"/>
</g>
<defs>
<clipPath id="clip0_392_3957">
<rect width="50.2857" height="32" fill="white" transform="translate(0.571411)"/>
</clipPath>
</defs>
</svg>
