<svg width="51" height="32" viewBox="0 0 51 32" fill="none" xmlns="http://www.w3.org/2000/svg">
<g clip-path="url(#clip0_392_3946)">
<path d="M50.5714 0H0.285706V32H50.5714V0Z" fill="white"/>
<path d="M50.5714 0H0.285706V32H50.5714V0Z" fill="white"/>
<path d="M50.3428 0.228577H0.514282V31.7714H50.3428V0.228577Z" stroke="#DFDFDF" stroke-width="0.5"/>
<path d="M37.3892 20.2752L37.1543 20.0402L37.3892 20.2752Z" fill="#F5931E"/>
<path d="M28.923 21.3514H22.5605V9.86792H28.923V21.3514Z" fill="#F06022"/>
<path d="M22.9783 15.8126C22.9988 14.6844 23.2599 13.5737 23.7441 12.5545C24.2283 11.5353 24.9245 10.6312 25.786 9.90265C24.8711 9.18948 23.799 8.70536 22.659 8.49063C21.519 8.27591 20.3442 8.3368 19.2325 8.66824C18.1208 8.99968 17.1045 9.59205 16.2682 10.396C15.4319 11.1999 14.7999 12.1921 14.4249 13.2899C14.0499 14.3876 13.9428 15.5591 14.1124 16.7067C14.282 17.8542 14.7234 18.9446 15.4 19.887C16.0765 20.8293 16.9685 21.5962 18.0016 22.1239C19.0347 22.6515 20.1789 22.9246 21.339 22.9202C22.1529 22.9527 22.9651 22.8232 23.7286 22.5391C24.492 22.255 25.1914 21.8221 25.786 21.2654C24.8936 20.6696 24.1675 19.8564 23.6763 18.9024C23.1851 17.9485 22.9449 16.8851 22.9783 15.8126Z" fill="#E91D25"/>
<path d="M37.5776 15.7239C37.564 17.6431 36.7959 19.4799 35.4393 20.8375C34.0827 22.1951 32.2465 22.9646 30.3273 22.9797C29.5154 23.0139 28.7047 22.8877 27.9416 22.6083C27.1785 22.3289 26.478 21.9018 25.8802 21.3513C26.7554 20.7005 27.4654 19.8531 27.9531 18.8775C28.4408 17.902 28.6925 16.8255 28.688 15.7349C28.6677 14.6128 28.4066 13.5083 27.9221 12.496C27.4377 11.4838 26.7413 10.5875 25.8802 9.86789C27.1628 8.8845 28.7133 8.31294 30.3273 8.22858C32.2598 8.32996 34.0821 9.15971 35.4274 10.5508C36.7726 11.9418 37.5409 13.7909 37.5776 15.7257V15.7239Z" fill="#F59D1E"/>
</g>
<defs>
<clipPath id="clip0_392_3946">
<rect width="50.2857" height="32" fill="white" transform="translate(0.285706)"/>
</clipPath>
</defs>
</svg>
