<svg width="52" height="32" viewBox="0 0 52 32" fill="none" xmlns="http://www.w3.org/2000/svg">
<g clip-path="url(#clip0_392_3968)">
<path d="M51.1429 0H0.857147V32H51.1429V0Z" fill="white"/>
<path d="M51.1429 0H0.857147V32H51.1429V0Z" fill="white"/>
<path d="M50.9143 0.228577H1.08572V31.7714H50.9143V0.228577Z" stroke="#DFDFDF" stroke-width="0.5"/>
<path d="M20.4247 13.2681H18.0759C18.0362 13.2645 17.9963 13.2687 17.9583 13.2805C17.9203 13.2923 17.885 13.3115 17.8544 13.337C17.8238 13.3624 17.7986 13.3937 17.7801 13.429C17.7616 13.4642 17.7503 13.5027 17.7467 13.5424L16.7611 19.5529C16.709 19.6626 16.8187 19.7723 16.9806 19.7723H18.1326C18.1722 19.776 18.2122 19.7718 18.2502 19.76C18.2882 19.7481 18.3235 19.7289 18.354 19.7035C18.3846 19.678 18.4099 19.6467 18.4283 19.6115C18.4468 19.5762 18.4581 19.5377 18.4617 19.498L18.6811 17.8523C18.697 17.7762 18.7382 17.7076 18.7979 17.6578C18.8577 17.608 18.9325 17.5799 19.0103 17.578H19.7728C20.0967 17.6128 20.4243 17.5819 20.7361 17.4872C21.0478 17.3926 21.3373 17.2361 21.5872 17.0271C21.8371 16.8181 22.0424 16.5609 22.1908 16.2709C22.3391 15.9809 22.4275 15.6639 22.4507 15.339C22.5176 15.0762 22.5232 14.8017 22.467 14.5365C22.4109 14.2712 22.2946 14.0225 22.1271 13.8094C21.8972 13.6064 21.6279 13.453 21.3362 13.3586C21.0444 13.2643 20.7363 13.2309 20.4311 13.2608L20.4247 13.2681ZM20.699 15.5072C20.5371 16.384 19.9365 16.384 19.2791 16.384H18.9499L19.1694 14.8178C19.1694 14.7081 19.2791 14.656 19.3888 14.656H19.5771C19.9396 14.5969 20.3112 14.673 20.6213 14.8699C20.7538 14.9595 20.7538 15.2356 20.6926 15.5072H20.699Z" fill="#253C7F"/>
<path d="M27.4766 15.4551H26.3282C26.2185 15.4551 26.1609 15.5072 26.1088 15.6169L26.0567 15.946L25.9991 15.8363C25.8197 15.6601 25.6041 15.5249 25.3673 15.4401C25.1305 15.3554 24.8782 15.323 24.6277 15.3454C24.0022 15.3569 23.4024 15.5959 22.9403 16.0176C22.4783 16.4392 22.1856 17.0148 22.117 17.6366C22.0578 17.9428 22.0658 18.2583 22.1407 18.5611C22.2155 18.8639 22.3553 19.1468 22.5504 19.3902C22.7217 19.5981 22.9408 19.7614 23.1891 19.8661C23.4374 19.9707 23.7073 20.0135 23.9758 19.9908C24.263 19.9906 24.5471 19.9311 24.8103 19.8162C25.0734 19.7012 25.3101 19.5331 25.5054 19.3225L25.4478 19.6516C25.3957 19.7614 25.5054 19.8711 25.6672 19.8711H26.6537C26.7334 19.877 26.8123 19.8517 26.8738 19.8005C26.9352 19.7493 26.9743 19.6763 26.9829 19.5968L27.5835 15.7184C27.696 15.5648 27.5863 15.4551 27.4766 15.4551ZM25.9104 17.6366C25.8744 17.943 25.7256 18.2251 25.493 18.4278C25.2605 18.6306 24.9608 18.7397 24.6523 18.7337C24.5082 18.7435 24.3639 18.7187 24.2312 18.6614C24.0986 18.6042 23.9816 18.5161 23.8898 18.4046C23.8065 18.2864 23.7486 18.1523 23.7198 18.0107C23.691 17.869 23.6919 17.723 23.7225 17.5817C23.76 17.2764 23.9094 16.9959 24.1418 16.7944C24.3742 16.5929 24.6731 16.4848 24.9806 16.491C25.1247 16.4819 25.2691 16.5065 25.4022 16.5626C25.5353 16.6188 25.6535 16.705 25.7477 16.8146C25.834 16.9311 25.8918 17.0663 25.9162 17.2092C25.9407 17.3522 25.9312 17.4989 25.8885 17.6375L25.9104 17.6366Z" fill="#253C7F"/>
<path d="M33.4898 15.456H32.3415C32.2854 15.4554 32.2302 15.4702 32.1818 15.4987C32.1335 15.5273 32.0939 15.5684 32.0672 15.6178L30.5376 17.9145L29.8848 15.7276C29.8644 15.6582 29.8203 15.5982 29.7601 15.558C29.6999 15.5179 29.6276 15.5003 29.5557 15.5081H28.4494C28.417 15.5075 28.385 15.5155 28.3567 15.5313C28.3284 15.5471 28.3049 15.5701 28.2884 15.598C28.2719 15.6259 28.2632 15.6577 28.263 15.6901C28.2629 15.7225 28.2713 15.7544 28.2875 15.7824L29.5456 19.4396L28.3973 21.0789C28.3713 21.1083 28.3547 21.1449 28.3495 21.1838C28.3443 21.2227 28.3507 21.2623 28.3681 21.2976C28.3854 21.3328 28.4128 21.3621 28.4468 21.3818C28.4808 21.4015 28.5199 21.4106 28.5591 21.408H29.7074C29.7639 21.4104 29.8198 21.3964 29.8685 21.3677C29.9172 21.339 29.9565 21.2968 29.9817 21.2462L33.7559 15.776C33.7614 15.67 33.6672 15.456 33.4898 15.456Z" fill="#253C7F"/>
<path d="M37.2585 13.2727H34.9097C34.8701 13.269 34.8301 13.2732 34.7921 13.2851C34.7541 13.2969 34.7188 13.3161 34.6882 13.3415C34.6577 13.367 34.6324 13.3983 34.6139 13.4335C34.5955 13.4688 34.5841 13.5073 34.5806 13.547L33.5995 19.5602C33.5419 19.6699 33.6516 19.7796 33.8135 19.7796H35.0194C35.0488 19.782 35.0784 19.7779 35.1061 19.7677C35.1338 19.7575 35.1589 19.7414 35.1798 19.7206C35.2006 19.6997 35.2167 19.6746 35.2269 19.6469C35.2371 19.6192 35.2412 19.5896 35.2388 19.5602L35.5131 17.8112C35.529 17.735 35.5702 17.6665 35.6299 17.6167C35.6897 17.5669 35.7645 17.5388 35.8423 17.5369H36.6048C36.9293 17.5711 37.2574 17.5397 37.5695 17.4445C37.8816 17.3494 38.1714 17.1925 38.4217 16.9831C38.6719 16.7737 38.8775 16.5161 39.0262 16.2256C39.1749 15.9352 39.2637 15.6178 39.2873 15.2923C39.3542 15.0293 39.3593 14.7543 39.3022 14.4889C39.2451 14.2236 39.1273 13.975 38.9582 13.7627C38.4659 13.4065 37.8648 13.2332 37.2585 13.2727ZM37.5328 15.5118C37.3655 16.3886 36.7657 16.3886 36.1074 16.3886H35.7783L35.9977 14.8224C35.9977 14.7127 36.1074 14.6606 36.2171 14.6606H36.3844C36.7469 14.6029 37.118 14.6789 37.4286 14.8745C37.4888 14.9684 37.5292 15.0736 37.5471 15.1837C37.565 15.2938 37.5602 15.4064 37.5328 15.5145V15.5118Z" fill="#159AD6"/>
<path d="M44.3104 15.4551H43.1602C43.0505 15.4551 42.9984 15.5072 42.9408 15.6169L42.8887 15.946L42.8311 15.8363C42.6516 15.6601 42.4361 15.5249 42.1993 15.4401C41.9625 15.3554 41.7102 15.323 41.4596 15.3454C40.8353 15.3592 40.2372 15.5992 39.7765 16.0208C39.3157 16.4424 39.0237 17.0168 38.9545 17.6375C38.8974 17.9454 38.9088 18.2621 38.9878 18.5652C39.0668 18.8682 39.2115 19.1502 39.4116 19.3911C39.5818 19.5989 39.8 19.7622 40.0474 19.8669C40.2947 19.9715 40.5639 20.0144 40.8315 19.9918C41.1161 19.9895 41.3973 19.929 41.6576 19.8141C41.918 19.6991 42.1521 19.5321 42.3456 19.3234L42.288 19.6526C42.2359 19.7623 42.3456 19.872 42.5074 19.872H43.4939C43.5737 19.8779 43.6526 19.8526 43.714 19.8014C43.7754 19.7502 43.8145 19.6772 43.8231 19.5977L44.4238 15.7193C44.5316 15.5648 44.4192 15.4551 44.3104 15.4551ZM42.7442 17.6366C42.7082 17.943 42.5594 18.2251 42.3269 18.4279C42.0943 18.6306 41.7947 18.7397 41.4862 18.7337C41.3421 18.7429 41.1979 18.7179 41.0654 18.6607C40.9328 18.6035 40.8157 18.5157 40.7237 18.4046C40.6403 18.2864 40.5824 18.1523 40.5536 18.0107C40.5248 17.869 40.5257 17.723 40.5563 17.5817C40.5938 17.2764 40.7432 16.9959 40.9756 16.7944C41.208 16.5929 41.5069 16.4848 41.8144 16.491C41.9517 16.4882 42.088 16.5158 42.2135 16.5717C42.339 16.6277 42.4506 16.7106 42.5403 16.8146C42.7058 17.0547 42.7714 17.3498 42.7232 17.6375L42.7442 17.6366Z" fill="#159AD6"/>
<path d="M45.6206 13.4272L44.6286 19.6023C44.571 19.712 44.6807 19.8217 44.848 19.8217H45.829C45.8687 19.8254 45.9086 19.8212 45.9466 19.8093C45.9846 19.7975 46.0199 19.7783 46.0505 19.7529C46.0811 19.7274 46.1063 19.6961 46.1248 19.6609C46.1433 19.6256 46.1546 19.5871 46.1582 19.5474L47.1392 13.5342C47.1968 13.4245 47.0871 13.3148 46.9253 13.3148H45.829C45.7303 13.2681 45.6727 13.3202 45.6206 13.4272Z" fill="#159AD6"/>
<path d="M6.97921 21.0304L7.14652 19.882H4.79224L6.16366 11.4103C6.16366 11.395 6.16973 11.3803 6.18053 11.3695C6.19134 11.3587 6.20599 11.3527 6.22126 11.3527C6.23509 11.3527 6.24834 11.3472 6.25811 11.3374C6.26789 11.3276 6.27338 11.3144 6.27338 11.3006H9.49898C9.88882 11.2526 10.2844 11.2858 10.6608 11.3981C11.0371 11.5105 11.3862 11.6995 11.6859 11.9534C11.8569 12.1353 11.9697 12.3642 12.0096 12.6107C12.0675 12.9001 12.0675 13.1981 12.0096 13.4875V13.7618L12.1769 13.8715C12.3248 13.93 12.4558 14.0242 12.5582 14.1458C12.7006 14.3469 12.8116 14.5686 12.8873 14.8032C12.9459 15.1298 12.928 15.4656 12.8352 15.7842C12.7908 16.1829 12.6392 16.5621 12.3963 16.8814C12.2232 17.1395 12.0217 17.3774 11.7957 17.5908C11.5415 17.792 11.2393 17.9234 10.9189 17.9721C10.5617 18.0637 10.1963 18.1198 9.82812 18.1394H9.60869C9.44138 18.1429 9.27846 18.1936 9.13875 18.2857C9.07002 18.3359 9.0146 18.4021 8.97731 18.4786C8.94003 18.5551 8.922 18.6395 8.92481 18.7246L8.86721 18.8343L8.51246 20.896V20.9536C8.51246 21.0057 8.51246 21.0057 8.46035 21.0057H8.40275C7.92935 21.0463 7.45373 21.0545 6.97921 21.0304Z" fill="#253C7F"/>
<path d="M12.4439 13.5817C12.4439 13.6338 12.3918 13.7436 12.3918 13.8012C11.9529 15.9954 10.4718 16.7662 8.61303 16.7662H7.63657C7.52852 16.7615 7.42277 16.7984 7.34112 16.8693C7.25947 16.9402 7.20814 17.0398 7.19771 17.1474L6.70674 20.2112L6.52937 21.0789C6.52178 21.1118 6.52175 21.146 6.52926 21.1789C6.53677 21.2119 6.55163 21.2427 6.57274 21.2691C6.59384 21.2955 6.62064 21.3167 6.65113 21.3313C6.68162 21.3459 6.71501 21.3533 6.7488 21.3532H8.46126C8.55906 21.3489 8.65331 21.3152 8.73163 21.2565C8.80995 21.1978 8.86868 21.1167 8.90011 21.024V20.9664L9.27223 18.8846L9.32434 18.7749C9.34555 18.6767 9.40183 18.5897 9.48263 18.5301C9.56343 18.4706 9.66319 18.4425 9.7632 18.4512H9.98263C10.7579 18.5406 11.5371 18.3204 12.1508 17.8385C12.7646 17.3565 13.1633 16.6518 13.2603 15.8775C13.3593 15.5555 13.3811 15.2147 13.3239 14.8828C13.2667 14.5508 13.1322 14.237 12.9312 13.9666C12.795 13.8083 12.6295 13.6776 12.4439 13.5817Z" fill="#159AD6"/>
<path d="M12.0059 13.4308C11.9427 13.3894 11.8672 13.371 11.792 13.3787C11.7344 13.3787 11.6247 13.3211 11.5726 13.3211C11.3008 13.2759 11.025 13.2584 10.7497 13.269H8.17965C8.12753 13.269 8.01782 13.269 8.01782 13.3211C7.95425 13.3501 7.90005 13.3963 7.86129 13.4545C7.82252 13.5126 7.80074 13.5804 7.79839 13.6503L7.24982 17.0377V17.1474C7.26867 17.0434 7.32243 16.9489 7.40222 16.8796C7.48201 16.8103 7.58306 16.7703 7.68867 16.7661H8.67519C10.533 16.7661 12.005 15.999 12.4439 13.8166C12.4439 13.759 12.5015 13.6493 12.5015 13.5972L12.1723 13.4299L12.0059 13.4308Z" fill="#252E64"/>
<path d="M7.7984 13.6494C7.83992 13.5216 7.91584 13.4077 8.01783 13.3202C8.03966 13.3007 8.06534 13.286 8.09321 13.277C8.12109 13.268 8.15054 13.265 8.17966 13.2681H10.7534C11.077 13.2681 11.3541 13.3202 11.5762 13.3202C11.6283 13.3202 11.7381 13.3778 11.7957 13.3778C11.8533 13.3778 11.9575 13.4299 12.0096 13.4299C12.0617 13.4299 12.0672 13.4875 12.1193 13.4875C12.2344 13.5298 12.3447 13.5841 12.4485 13.6494C12.5415 13.3281 12.55 12.9883 12.4731 12.6628C12.3962 12.3373 12.2365 12.0372 12.0096 11.7915C11.6785 11.4926 11.2892 11.2652 10.8662 11.1236C10.4432 10.982 9.99545 10.9293 9.55108 10.9687H6.32183C6.21442 10.9643 6.10944 11.0014 6.02873 11.0724C5.94802 11.1434 5.89777 11.2428 5.88846 11.3499L4.51703 19.9314C4.50879 19.9717 4.50973 20.0134 4.51977 20.0533C4.52981 20.0932 4.54871 20.1303 4.57505 20.1619C4.60139 20.1935 4.6345 20.2188 4.67194 20.2359C4.70938 20.253 4.75018 20.2614 4.79131 20.2606H6.81646L7.30469 17.098L7.7984 13.6494Z" fill="#253C7F"/>
</g>
<defs>
<clipPath id="clip0_392_3968">
<rect width="50.2857" height="32" fill="white" transform="translate(0.857147)"/>
</clipPath>
</defs>
</svg>
