<svg width="51" height="32" viewBox="0 0 51 32" fill="none" xmlns="http://www.w3.org/2000/svg">
<g clip-path="url(#clip0_392_3937)">
<path d="M50.2857 0H0V32H50.2857V0Z" fill="white"/>
<path d="M50.2857 0H0V32H50.2857V0Z" fill="white"/>
<path d="M50.0571 0.228577H0.228577V31.7714H50.0571V0.228577Z" stroke="#DFDFDF" stroke-width="0.5"/>
<path d="M29.578 10.9769C27.0729 10.9769 25.3239 12.3136 25.3239 14.229C25.2818 15.6489 26.5765 16.4005 27.5319 16.9015C28.4873 17.4025 28.8686 17.6951 28.8686 18.1074C28.8686 18.7758 28.075 19.0674 27.3024 19.0674C26.479 19.0932 25.6621 18.9138 24.9253 18.5454L24.5915 18.4201L24.2789 20.6144C25.1845 20.9576 26.1447 21.1345 27.1131 21.1365C29.7234 21.1365 31.4926 19.7998 31.5346 17.7591C31.5767 16.6318 30.8663 15.7961 29.4098 15.0866C28.533 14.6295 27.9899 14.3351 27.9899 13.8807C27.9899 13.4263 28.4471 13.046 29.4528 13.046C30.1137 13.0148 30.7724 13.1437 31.3728 13.4217L31.6233 13.5049L31.957 11.349C31.1871 11.1089 30.3863 10.9823 29.5799 10.9733L29.578 10.9769ZM21.7481 11.1442L20.1838 20.9463H22.7154L24.2798 11.1433L21.7481 11.1442ZM18.037 11.1442L15.5209 17.8194L15.2283 16.4828C14.606 14.7239 13.3596 13.2547 11.7257 12.3538L14.0224 20.9481H16.7314L20.7323 11.1854L18.0133 11.1433L18.037 11.1442ZM36.4261 11.1442C36.1468 11.1094 35.8638 11.1685 35.6218 11.3122C35.3798 11.4559 35.1925 11.676 35.0894 11.9378L31.3262 20.9463H33.9365C33.9365 20.9463 34.3936 19.7358 34.4585 19.4432H37.7106C37.7938 19.7769 38.0443 20.9061 38.0443 20.9061H40.4608L38.4201 11.1022L36.416 11.1442H36.4261ZM36.5934 13.8167L36.7607 14.688C36.7607 14.688 37.2827 17.0268 37.3449 17.5278H35.2046C35.413 16.9436 36.2103 14.7721 36.2103 14.7721C36.3644 14.4658 36.4902 14.146 36.5861 13.8167H36.5934Z" fill="#2A2B6D"/>
<path d="M13.2297 11.1433H9.14285V11.3106C10.51 11.6166 11.7837 12.2461 12.8573 13.1462C13.9308 14.0463 14.7727 15.1908 15.3125 16.4837L14.3982 11.979C14.2318 11.3518 13.8149 11.1854 13.2297 11.1433Z" fill="#F4B41A"/>
</g>
<defs>
<clipPath id="clip0_392_3937">
<rect width="50.2857" height="32" fill="white"/>
</clipPath>
</defs>
</svg>
