<svg width="129" height="129" viewBox="0 0 129 129" fill="none" xmlns="http://www.w3.org/2000/svg">
<path d="M64.5 0C28.8689 0 0 28.8689 0 64.5C0 100.131 28.8689 129 64.5 129C100.131 129 129 100.131 129 64.5C129 28.8689 100.131 0 64.5 0ZM64.5 24.9677C77.1399 24.9677 87.3871 35.2149 87.3871 47.8548C87.3871 60.4948 77.1399 70.7419 64.5 70.7419C51.8601 70.7419 41.6129 60.4948 41.6129 47.8548C41.6129 35.2149 51.8601 24.9677 64.5 24.9677ZM64.5 114.435C49.2333 114.435 35.553 107.517 26.3982 96.698C31.2877 87.4911 40.8587 81.1452 52.0161 81.1452C52.6403 81.1452 53.2645 81.2492 53.8627 81.4313C57.2437 82.5236 60.7808 83.2258 64.5 83.2258C68.2192 83.2258 71.7823 82.5236 75.1373 81.4313C75.7355 81.2492 76.3597 81.1452 76.9839 81.1452C88.1413 81.1452 97.7123 87.4911 102.602 96.698C93.447 107.517 79.7667 114.435 64.5 114.435Z" fill="#0B1A44"/>
</svg>
